<?xml version="1.0" encoding="UTF-8"?>
<svg xmlns="http://www.w3.org/2000/svg" version="1.1" width="120" height="120" viewBox="0 0 120 120"><rect x="0" y="0" width="120" height="120" fill="#fefefe"/><g transform="scale(3.243)"><g transform="translate(0,0)"><path fill-rule="evenodd" d="M8 0L8 1L9 1L9 2L10 2L10 3L12 3L12 2L10 2L10 1L9 1L9 0ZM12 0L12 1L14 1L14 2L15 2L15 3L16 3L16 4L17 4L17 3L18 3L18 2L16 2L16 1L17 1L17 0ZM18 0L18 1L19 1L19 2L20 2L20 3L19 3L19 4L21 4L21 5L17 5L17 6L16 6L16 7L15 7L15 5L14 5L14 4L13 4L13 5L14 5L14 7L13 7L13 6L12 6L12 7L11 7L11 5L12 5L12 4L10 4L10 7L11 7L11 8L13 8L13 9L12 9L12 10L11 10L11 9L9 9L9 10L8 10L8 12L5 12L5 13L4 13L4 12L3 12L3 13L1 13L1 14L2 14L2 15L3 15L3 16L2 16L2 17L1 17L1 16L0 16L0 19L2 19L2 18L3 18L3 20L0 20L0 21L1 21L1 22L2 22L2 21L3 21L3 23L0 23L0 29L1 29L1 24L2 24L2 29L3 29L3 28L4 28L4 29L5 29L5 28L6 28L6 29L8 29L8 36L11 36L11 37L12 37L12 36L11 36L11 35L12 35L12 34L13 34L13 33L14 33L14 35L13 35L13 37L18 37L18 36L19 36L19 33L21 33L21 34L20 34L20 35L21 35L21 36L25 36L25 37L26 37L26 36L27 36L27 37L30 37L30 36L31 36L31 35L32 35L32 36L33 36L33 37L37 37L37 36L36 36L36 35L37 35L37 32L36 32L36 31L37 31L37 28L36 28L36 27L37 27L37 24L36 24L36 23L35 23L35 22L37 22L37 21L35 21L35 22L34 22L34 20L35 20L35 19L37 19L37 16L36 16L36 15L37 15L37 14L36 14L36 13L37 13L37 12L36 12L36 10L37 10L37 8L36 8L36 10L34 10L34 12L30 12L30 11L33 11L33 10L31 10L31 9L33 9L33 8L31 8L31 9L28 9L28 8L27 8L27 6L28 6L28 7L29 7L29 5L27 5L27 6L26 6L26 5L25 5L25 3L24 3L24 1L23 1L23 2L21 2L21 1L22 1L22 0L21 0L21 1L20 1L20 0ZM26 0L26 1L25 1L25 2L26 2L26 3L27 3L27 4L28 4L28 3L27 3L27 2L29 2L29 1L28 1L28 0ZM26 1L26 2L27 2L27 1ZM21 3L21 4L22 4L22 5L21 5L21 7L20 7L20 6L19 6L19 8L18 8L18 6L17 6L17 7L16 7L16 9L15 9L15 8L14 8L14 9L13 9L13 10L14 10L14 11L11 11L11 10L10 10L10 11L9 11L9 14L8 14L8 13L6 13L6 14L4 14L4 15L5 15L5 16L4 16L4 17L3 17L3 18L4 18L4 19L5 19L5 20L7 20L7 21L5 21L5 22L4 22L4 23L3 23L3 25L4 25L4 26L3 26L3 27L4 27L4 26L7 26L7 25L8 25L8 27L10 27L10 28L8 28L8 29L10 29L10 28L11 28L11 29L13 29L13 30L12 30L12 31L11 31L11 32L10 32L10 30L9 30L9 32L10 32L10 33L9 33L9 35L11 35L11 33L12 33L12 32L14 32L14 30L15 30L15 29L17 29L17 30L16 30L16 31L15 31L15 32L16 32L16 33L15 33L15 35L14 35L14 36L16 36L16 34L17 34L17 32L18 32L18 33L19 33L19 32L18 32L18 31L19 31L19 30L18 30L18 29L19 29L19 28L18 28L18 29L17 29L17 27L18 27L18 26L17 26L17 24L18 24L18 25L23 25L23 26L21 26L21 27L20 27L20 29L21 29L21 31L20 31L20 32L23 32L23 33L22 33L22 34L21 34L21 35L25 35L25 36L26 36L26 35L28 35L28 36L30 36L30 35L29 35L29 34L32 34L32 33L29 33L29 34L28 34L28 31L27 31L27 28L29 28L29 27L30 27L30 28L31 28L31 27L30 27L30 26L31 26L31 25L33 25L33 23L34 23L34 24L35 24L35 25L34 25L34 26L33 26L33 27L32 27L32 28L33 28L33 29L34 29L34 30L33 30L33 31L34 31L34 32L33 32L33 34L34 34L34 36L35 36L35 35L36 35L36 34L35 34L35 33L36 33L36 32L35 32L35 31L36 31L36 28L35 28L35 27L34 27L34 26L35 26L35 25L36 25L36 24L35 24L35 23L34 23L34 22L33 22L33 20L34 20L34 18L36 18L36 16L34 16L34 17L33 17L33 15L34 15L34 14L35 14L35 15L36 15L36 14L35 14L35 12L34 12L34 14L33 14L33 13L31 13L31 14L33 14L33 15L30 15L30 12L29 12L29 11L30 11L30 10L29 10L29 11L27 11L27 10L26 10L26 6L25 6L25 5L24 5L24 3ZM8 4L8 7L9 7L9 4ZM22 6L22 7L23 7L23 8L22 8L22 9L21 9L21 8L20 8L20 9L21 9L21 10L19 10L19 9L18 9L18 11L17 11L17 10L16 10L16 11L17 11L17 12L19 12L19 11L21 11L21 12L22 12L22 13L19 13L19 14L17 14L17 13L16 13L16 12L15 12L15 11L14 11L14 12L13 12L13 14L10 14L10 15L9 15L9 16L5 16L5 17L4 17L4 18L5 18L5 17L7 17L7 18L6 18L6 19L7 19L7 20L8 20L8 18L9 18L9 20L10 20L10 18L11 18L11 17L12 17L12 18L13 18L13 17L14 17L14 16L15 16L15 15L18 15L18 17L17 17L17 16L16 16L16 17L17 17L17 18L18 18L18 19L19 19L19 20L20 20L20 21L19 21L19 22L17 22L17 23L18 23L18 24L19 24L19 22L22 22L22 21L23 21L23 20L25 20L25 21L26 21L26 20L27 20L27 22L28 22L28 23L29 23L29 24L27 24L27 23L26 23L26 22L23 22L23 23L21 23L21 24L24 24L24 25L29 25L29 24L30 24L30 25L31 25L31 24L30 24L30 23L33 23L33 22L31 22L31 20L30 20L30 19L33 19L33 18L31 18L31 16L30 16L30 15L29 15L29 14L27 14L27 15L26 15L26 14L25 14L25 15L23 15L23 16L24 16L24 18L22 18L22 13L23 13L23 14L24 14L24 13L25 13L25 12L27 12L27 13L28 13L28 12L27 12L27 11L26 11L26 10L25 10L25 6L24 6L24 7L23 7L23 6ZM1 8L1 9L0 9L0 10L2 10L2 11L3 11L3 10L2 10L2 9L4 9L4 10L6 10L6 11L7 11L7 10L6 10L6 9L8 9L8 8ZM23 8L23 9L22 9L22 10L21 10L21 11L25 11L25 10L24 10L24 8ZM23 12L23 13L24 13L24 12ZM14 13L14 14L16 14L16 13ZM6 14L6 15L8 15L8 14ZM19 14L19 15L21 15L21 14ZM12 15L12 16L14 16L14 15ZM27 15L27 16L25 16L25 18L24 18L24 19L25 19L25 20L26 20L26 19L27 19L27 20L28 20L28 22L29 22L29 23L30 23L30 22L29 22L29 21L30 21L30 20L28 20L28 18L27 18L27 16L28 16L28 17L29 17L29 19L30 19L30 16L29 16L29 15ZM19 16L19 17L20 17L20 20L22 20L22 18L21 18L21 16ZM9 17L9 18L10 18L10 17ZM14 18L14 19L12 19L12 20L11 20L11 22L8 22L8 21L7 21L7 22L5 22L5 23L4 23L4 25L7 25L7 24L8 24L8 23L10 23L10 24L9 24L9 26L10 26L10 27L13 27L13 26L10 26L10 24L11 24L11 25L13 25L13 24L14 24L14 28L13 28L13 29L15 29L15 26L16 26L16 27L17 27L17 26L16 26L16 25L15 25L15 24L14 24L14 22L13 22L13 21L15 21L15 22L16 22L16 20L17 20L17 19L16 19L16 18ZM25 18L25 19L26 19L26 18ZM14 19L14 20L15 20L15 19ZM12 20L12 21L13 21L13 20ZM7 22L7 23L5 23L5 24L7 24L7 23L8 23L8 22ZM11 22L11 24L12 24L12 22ZM25 23L25 24L26 24L26 23ZM23 26L23 28L21 28L21 29L22 29L22 31L23 31L23 32L25 32L25 31L26 31L26 32L27 32L27 31L26 31L26 30L25 30L25 31L23 31L23 28L24 28L24 29L26 29L26 28L27 28L27 27L29 27L29 26L27 26L27 27L26 27L26 26L25 26L25 27L26 27L26 28L24 28L24 26ZM6 27L6 28L7 28L7 27ZM33 27L33 28L34 28L34 27ZM29 29L29 32L32 32L32 29ZM17 30L17 31L18 31L18 30ZM30 30L30 31L31 31L31 30ZM34 30L34 31L35 31L35 30ZM23 33L23 34L24 34L24 33ZM26 33L26 34L25 34L25 35L26 35L26 34L27 34L27 33ZM0 0L0 7L7 7L7 0ZM1 1L1 6L6 6L6 1ZM2 2L2 5L5 5L5 2ZM30 0L30 7L37 7L37 0ZM31 1L31 6L36 6L36 1ZM32 2L32 5L35 5L35 2ZM0 30L0 37L7 37L7 30ZM1 31L1 36L6 36L6 31ZM2 32L2 35L5 35L5 32Z" fill="#000000"/></g></g></svg>
